<svg width="435" height="219" viewBox="0 0 435 219" fill="none" xmlns="http://www.w3.org/2000/svg">
<rect width="435" height="219" rx="10" fill="#D9D9D9"/>
<path d="M94.0311 164.5V157.192H95.2631V164.5H94.0311ZM94.0311 155.82V154.28H95.2631V155.82H94.0311ZM108.276 164.5H107.044V160.412C107.044 159.647 106.918 159.082 106.666 158.718C106.423 158.354 106.059 158.172 105.574 158.172C105.079 158.172 104.631 158.354 104.23 158.718C103.828 159.073 103.544 159.535 103.376 160.104V164.5H102.144V160.412C102.144 159.637 102.022 159.073 101.78 158.718C101.537 158.354 101.173 158.172 100.688 158.172C100.202 158.172 99.7543 158.349 99.3437 158.704C98.9423 159.049 98.6577 159.511 98.4897 160.09V164.5H97.2577V157.192H98.3777V158.76C98.6763 158.219 99.0637 157.803 99.5397 157.514C100.016 157.215 100.552 157.066 101.15 157.066C101.756 157.066 102.242 157.234 102.606 157.57C102.97 157.897 103.194 158.321 103.278 158.844C103.604 158.265 104.001 157.827 104.468 157.528C104.934 157.22 105.466 157.066 106.064 157.066C106.484 157.066 106.834 157.145 107.114 157.304C107.403 157.453 107.632 157.668 107.8 157.948C107.968 158.219 108.089 158.541 108.164 158.914C108.238 159.287 108.276 159.693 108.276 160.132V164.5ZM109.617 162.386C109.617 161.919 109.748 161.518 110.009 161.182C110.28 160.837 110.649 160.571 111.115 160.384C111.582 160.197 112.123 160.104 112.739 160.104C113.066 160.104 113.411 160.132 113.775 160.188C114.139 160.235 114.461 160.309 114.741 160.412V159.88C114.741 159.32 114.573 158.881 114.237 158.564C113.901 158.237 113.425 158.074 112.809 158.074C112.408 158.074 112.021 158.149 111.647 158.298C111.283 158.438 110.896 158.643 110.485 158.914L110.037 158.046C110.513 157.719 110.989 157.477 111.465 157.318C111.941 157.15 112.436 157.066 112.949 157.066C113.883 157.066 114.62 157.327 115.161 157.85C115.703 158.363 115.973 159.082 115.973 160.006V163.1C115.973 163.249 116.001 163.361 116.057 163.436C116.123 163.501 116.225 163.539 116.365 163.548V164.5C116.244 164.519 116.137 164.533 116.043 164.542C115.959 164.551 115.889 164.556 115.833 164.556C115.544 164.556 115.325 164.477 115.175 164.318C115.035 164.159 114.956 163.991 114.937 163.814L114.909 163.352C114.592 163.763 114.177 164.08 113.663 164.304C113.15 164.528 112.641 164.64 112.137 164.64C111.652 164.64 111.218 164.542 110.835 164.346C110.453 164.141 110.154 163.87 109.939 163.534C109.725 163.189 109.617 162.806 109.617 162.386ZM114.377 162.904C114.489 162.773 114.578 162.643 114.643 162.512C114.709 162.372 114.741 162.255 114.741 162.162V161.252C114.452 161.14 114.149 161.056 113.831 161C113.514 160.935 113.201 160.902 112.893 160.902C112.268 160.902 111.759 161.028 111.367 161.28C110.985 161.523 110.793 161.859 110.793 162.288C110.793 162.521 110.854 162.75 110.975 162.974C111.106 163.189 111.293 163.366 111.535 163.506C111.787 163.646 112.095 163.716 112.459 163.716C112.842 163.716 113.206 163.641 113.551 163.492C113.897 163.333 114.172 163.137 114.377 162.904ZM120.855 164.584C120.361 164.584 119.903 164.486 119.483 164.29C119.073 164.085 118.718 163.809 118.419 163.464C118.121 163.109 117.887 162.708 117.719 162.26C117.561 161.812 117.481 161.345 117.481 160.86C117.481 160.347 117.561 159.861 117.719 159.404C117.887 158.947 118.121 158.545 118.419 158.2C118.727 157.845 119.087 157.57 119.497 157.374C119.908 157.169 120.365 157.066 120.869 157.066C121.476 157.066 122.003 157.215 122.451 157.514C122.909 157.813 123.291 158.191 123.599 158.648V157.192H124.691V164.416C124.691 165.107 124.523 165.69 124.187 166.166C123.861 166.642 123.413 167.001 122.843 167.244C122.283 167.496 121.658 167.622 120.967 167.622C120.146 167.622 119.474 167.477 118.951 167.188C118.429 166.899 117.995 166.507 117.649 166.012L118.363 165.382C118.653 165.811 119.026 166.133 119.483 166.348C119.95 166.563 120.445 166.67 120.967 166.67C121.415 166.67 121.826 166.586 122.199 166.418C122.582 166.259 122.885 166.012 123.109 165.676C123.343 165.34 123.459 164.92 123.459 164.416V163.128C123.189 163.576 122.815 163.931 122.339 164.192C121.873 164.453 121.378 164.584 120.855 164.584ZM121.233 163.576C121.495 163.576 121.747 163.529 121.989 163.436C122.232 163.343 122.456 163.221 122.661 163.072C122.867 162.913 123.039 162.736 123.179 162.54C123.319 162.344 123.413 162.143 123.459 161.938V159.838C123.329 159.502 123.142 159.208 122.899 158.956C122.657 158.695 122.381 158.494 122.073 158.354C121.765 158.205 121.448 158.13 121.121 158.13C120.748 158.13 120.412 158.209 120.113 158.368C119.824 158.527 119.577 158.741 119.371 159.012C119.166 159.273 119.007 159.567 118.895 159.894C118.783 160.221 118.727 160.552 118.727 160.888C118.727 161.252 118.793 161.597 118.923 161.924C119.054 162.241 119.231 162.526 119.455 162.778C119.679 163.03 119.945 163.226 120.253 163.366C120.561 163.506 120.888 163.576 121.233 163.576ZM129.914 164.64C129.363 164.64 128.859 164.542 128.402 164.346C127.954 164.141 127.562 163.865 127.226 163.52C126.899 163.165 126.642 162.759 126.456 162.302C126.278 161.845 126.19 161.359 126.19 160.846C126.19 160.155 126.348 159.525 126.666 158.956C126.983 158.387 127.422 157.929 127.982 157.584C128.551 157.239 129.2 157.066 129.928 157.066C130.665 157.066 131.304 157.243 131.846 157.598C132.396 157.943 132.821 158.401 133.12 158.97C133.428 159.53 133.582 160.137 133.582 160.79C133.582 160.883 133.577 160.977 133.568 161.07C133.568 161.154 133.563 161.219 133.554 161.266H127.492C127.529 161.742 127.66 162.167 127.884 162.54C128.117 162.904 128.416 163.193 128.78 163.408C129.144 163.613 129.536 163.716 129.956 163.716C130.404 163.716 130.824 163.604 131.216 163.38C131.617 163.156 131.892 162.862 132.042 162.498L133.106 162.792C132.947 163.147 132.709 163.464 132.392 163.744C132.084 164.024 131.715 164.243 131.286 164.402C130.866 164.561 130.408 164.64 129.914 164.64ZM127.45 160.412H132.434C132.396 159.936 132.261 159.516 132.028 159.152C131.794 158.788 131.496 158.503 131.132 158.298C130.768 158.093 130.366 157.99 129.928 157.99C129.498 157.99 129.102 158.093 128.738 158.298C128.374 158.503 128.075 158.788 127.842 159.152C127.618 159.516 127.487 159.936 127.45 160.412ZM144.834 164.5H143.602V160.412C143.602 159.637 143.481 159.073 143.238 158.718C143.005 158.354 142.645 158.172 142.16 158.172C141.824 158.172 141.488 158.256 141.152 158.424C140.825 158.592 140.531 158.821 140.27 159.11C140.018 159.39 139.836 159.717 139.724 160.09V164.5H138.492V157.192H139.612V158.76C139.808 158.415 140.06 158.116 140.368 157.864C140.676 157.612 141.026 157.416 141.418 157.276C141.81 157.136 142.221 157.066 142.65 157.066C143.07 157.066 143.42 157.145 143.7 157.304C143.989 157.453 144.213 157.668 144.372 157.948C144.54 158.219 144.657 158.541 144.722 158.914C144.797 159.287 144.834 159.693 144.834 160.132V164.5ZM149.942 164.64C149.391 164.64 148.892 164.542 148.444 164.346C147.996 164.141 147.609 163.865 147.282 163.52C146.955 163.165 146.703 162.759 146.526 162.302C146.349 161.845 146.26 161.364 146.26 160.86C146.26 160.347 146.349 159.861 146.526 159.404C146.703 158.947 146.955 158.545 147.282 158.2C147.609 157.845 147.996 157.57 148.444 157.374C148.901 157.169 149.401 157.066 149.942 157.066C150.493 157.066 150.992 157.169 151.44 157.374C151.888 157.57 152.275 157.845 152.602 158.2C152.938 158.545 153.195 158.947 153.372 159.404C153.549 159.861 153.638 160.347 153.638 160.86C153.638 161.364 153.549 161.845 153.372 162.302C153.195 162.759 152.943 163.165 152.616 163.52C152.289 163.865 151.897 164.141 151.44 164.346C150.992 164.542 150.493 164.64 149.942 164.64ZM147.52 160.874C147.52 161.378 147.627 161.835 147.842 162.246C148.066 162.657 148.36 162.983 148.724 163.226C149.088 163.459 149.494 163.576 149.942 163.576C150.39 163.576 150.796 163.455 151.16 163.212C151.533 162.969 151.827 162.643 152.042 162.232C152.266 161.812 152.378 161.35 152.378 160.846C152.378 160.342 152.266 159.885 152.042 159.474C151.827 159.063 151.533 158.737 151.16 158.494C150.796 158.251 150.39 158.13 149.942 158.13C149.494 158.13 149.088 158.256 148.724 158.508C148.36 158.751 148.066 159.077 147.842 159.488C147.627 159.899 147.52 160.361 147.52 160.874ZM158.801 164.136C158.699 164.183 158.559 164.243 158.381 164.318C158.204 164.393 157.999 164.458 157.765 164.514C157.532 164.57 157.285 164.598 157.023 164.598C156.725 164.598 156.449 164.547 156.197 164.444C155.945 164.332 155.745 164.164 155.595 163.94C155.446 163.707 155.371 163.417 155.371 163.072V158.158H154.377V157.192H155.371V154.756H156.603V157.192H158.241V158.158H156.603V162.694C156.622 162.955 156.711 163.151 156.869 163.282C157.028 163.403 157.215 163.464 157.429 163.464C157.672 163.464 157.896 163.422 158.101 163.338C158.307 163.254 158.442 163.193 158.507 163.156L158.801 164.136ZM163.876 164.5V158.158H162.882V157.192H163.876V157.038C163.876 156.441 163.965 155.927 164.142 155.498C164.329 155.059 164.59 154.723 164.926 154.49C165.262 154.257 165.659 154.14 166.116 154.14C166.406 154.14 166.69 154.182 166.97 154.266C167.25 154.341 167.502 154.448 167.726 154.588L167.418 155.498C167.288 155.405 167.124 155.33 166.928 155.274C166.742 155.218 166.555 155.19 166.368 155.19C165.967 155.19 165.654 155.349 165.43 155.666C165.216 155.974 165.108 156.417 165.108 156.996V157.192H167.054V158.158H165.108V164.5H163.876ZM171.297 164.64C170.747 164.64 170.247 164.542 169.799 164.346C169.351 164.141 168.964 163.865 168.637 163.52C168.311 163.165 168.059 162.759 167.881 162.302C167.704 161.845 167.615 161.364 167.615 160.86C167.615 160.347 167.704 159.861 167.881 159.404C168.059 158.947 168.311 158.545 168.637 158.2C168.964 157.845 169.351 157.57 169.799 157.374C170.257 157.169 170.756 157.066 171.297 157.066C171.848 157.066 172.347 157.169 172.795 157.374C173.243 157.57 173.631 157.845 173.957 158.2C174.293 158.545 174.55 158.947 174.727 159.404C174.905 159.861 174.993 160.347 174.993 160.86C174.993 161.364 174.905 161.845 174.727 162.302C174.55 162.759 174.298 163.165 173.971 163.52C173.645 163.865 173.253 164.141 172.795 164.346C172.347 164.542 171.848 164.64 171.297 164.64ZM168.875 160.874C168.875 161.378 168.983 161.835 169.197 162.246C169.421 162.657 169.715 162.983 170.079 163.226C170.443 163.459 170.849 163.576 171.297 163.576C171.745 163.576 172.151 163.455 172.515 163.212C172.889 162.969 173.183 162.643 173.397 162.232C173.621 161.812 173.733 161.35 173.733 160.846C173.733 160.342 173.621 159.885 173.397 159.474C173.183 159.063 172.889 158.737 172.515 158.494C172.151 158.251 171.745 158.13 171.297 158.13C170.849 158.13 170.443 158.256 170.079 158.508C169.715 158.751 169.421 159.077 169.197 159.488C168.983 159.899 168.875 160.361 168.875 160.874ZM176.416 161.574V157.192H177.648V161.336C177.648 162.083 177.779 162.643 178.04 163.016C178.302 163.389 178.689 163.576 179.202 163.576C179.538 163.576 179.86 163.506 180.168 163.366C180.486 163.217 180.77 163.007 181.022 162.736C181.274 162.465 181.47 162.143 181.61 161.77V157.192H182.842V163.1C182.842 163.249 182.87 163.361 182.926 163.436C182.992 163.501 183.094 163.539 183.234 163.548V164.5C183.094 164.519 182.982 164.528 182.898 164.528C182.824 164.537 182.749 164.542 182.674 164.542C182.441 164.542 182.24 164.472 182.072 164.332C181.904 164.183 181.816 164.001 181.806 163.786L181.778 162.932C181.461 163.473 181.032 163.893 180.49 164.192C179.958 164.491 179.375 164.64 178.74 164.64C177.975 164.64 177.396 164.383 177.004 163.87C176.612 163.347 176.416 162.582 176.416 161.574ZM191.236 164.5H190.004V160.412C190.004 159.637 189.883 159.073 189.64 158.718C189.407 158.354 189.048 158.172 188.562 158.172C188.226 158.172 187.89 158.256 187.554 158.424C187.228 158.592 186.934 158.821 186.672 159.11C186.42 159.39 186.238 159.717 186.126 160.09V164.5H184.894V157.192H186.014V158.76C186.21 158.415 186.462 158.116 186.77 157.864C187.078 157.612 187.428 157.416 187.82 157.276C188.212 157.136 188.623 157.066 189.052 157.066C189.472 157.066 189.822 157.145 190.102 157.304C190.392 157.453 190.616 157.668 190.774 157.948C190.942 158.219 191.059 158.541 191.124 158.914C191.199 159.287 191.236 159.693 191.236 160.132V164.5ZM192.676 160.86C192.676 160.169 192.816 159.539 193.096 158.97C193.386 158.391 193.778 157.929 194.272 157.584C194.776 157.239 195.35 157.066 195.994 157.066C196.582 157.066 197.11 157.22 197.576 157.528C198.043 157.836 198.407 158.209 198.668 158.648V154.28H199.9V163.1C199.9 163.249 199.928 163.361 199.984 163.436C200.05 163.501 200.152 163.539 200.292 163.548V164.5C200.059 164.537 199.877 164.556 199.746 164.556C199.504 164.556 199.289 164.472 199.102 164.304C198.925 164.136 198.836 163.949 198.836 163.744V163.128C198.547 163.595 198.16 163.963 197.674 164.234C197.189 164.505 196.685 164.64 196.162 164.64C195.658 164.64 195.192 164.542 194.762 164.346C194.342 164.141 193.974 163.861 193.656 163.506C193.348 163.151 193.106 162.75 192.928 162.302C192.76 161.845 192.676 161.364 192.676 160.86ZM198.668 161.938V159.838C198.556 159.521 198.374 159.236 198.122 158.984C197.87 158.723 197.586 158.517 197.268 158.368C196.96 158.209 196.652 158.13 196.344 158.13C195.98 158.13 195.649 158.209 195.35 158.368C195.061 158.517 194.809 158.723 194.594 158.984C194.389 159.236 194.23 159.525 194.118 159.852C194.006 160.179 193.95 160.519 193.95 160.874C193.95 161.238 194.011 161.583 194.132 161.91C194.263 162.237 194.44 162.526 194.664 162.778C194.898 163.03 195.164 163.226 195.462 163.366C195.77 163.506 196.102 163.576 196.456 163.576C196.68 163.576 196.909 163.534 197.142 163.45C197.385 163.366 197.614 163.249 197.828 163.1C198.043 162.951 198.225 162.778 198.374 162.582C198.524 162.377 198.622 162.162 198.668 161.938Z" fill="#00917C"/>
<path d="M150.682 112.595L144.098 106.066C141.072 103.066 139.559 101.565 137.818 101.003C136.285 100.507 134.636 100.507 133.104 101.003C131.362 101.565 129.849 103.066 126.823 106.066L111.494 121.505M150.682 112.595L151.99 111.297C155.079 108.233 156.624 106.701 158.396 106.142C159.955 105.65 161.63 105.67 163.177 106.197C164.936 106.797 166.445 108.364 169.463 111.497L172.667 114.75M150.682 112.595L165.843 128.024M111.494 121.505C111.333 120.142 111.333 118.379 111.333 115.9V79.1C111.333 74.8063 111.333 72.6594 112.169 71.0194C112.904 69.5768 114.077 68.404 115.52 67.669C117.16 66.8333 119.306 66.8333 123.6 66.8333H142M111.494 121.505C111.612 122.503 111.816 123.287 112.169 123.981C112.904 125.423 114.077 126.596 115.52 127.331C117.16 128.167 119.306 128.167 123.6 128.167H160.4C164.694 128.167 166.841 128.167 168.481 127.331C169.923 126.596 171.096 125.423 171.831 123.981C172.667 122.341 172.667 120.194 172.667 115.9V97.5M157.333 63L166.917 72.5833M166.917 72.5833L176.5 82.1667M166.917 72.5833L176.5 63M166.917 72.5833L157.333 82.1667" stroke="#00917C" stroke-width="6" stroke-linecap="round" stroke-linejoin="round"/>
<path d="M261.53 163.083V155.775H262.762V163.083H261.53ZM261.53 154.403V152.863H262.762V154.403H261.53ZM275.775 163.083H274.543V158.995C274.543 158.23 274.417 157.665 274.165 157.301C273.922 156.937 273.558 156.755 273.073 156.755C272.578 156.755 272.13 156.937 271.729 157.301C271.327 157.656 271.043 158.118 270.875 158.687V163.083H269.643V158.995C269.643 158.221 269.521 157.656 269.279 157.301C269.036 156.937 268.672 156.755 268.187 156.755C267.701 156.755 267.253 156.933 266.843 157.287C266.441 157.633 266.157 158.095 265.989 158.673V163.083H264.757V155.775H265.877V157.343C266.175 156.802 266.563 156.387 267.039 156.097C267.515 155.799 268.051 155.649 268.649 155.649C269.255 155.649 269.741 155.817 270.105 156.153C270.469 156.48 270.693 156.905 270.777 157.427C271.103 156.849 271.5 156.41 271.967 156.111C272.433 155.803 272.965 155.649 273.563 155.649C273.983 155.649 274.333 155.729 274.613 155.887C274.902 156.037 275.131 156.251 275.299 156.531C275.467 156.802 275.588 157.124 275.663 157.497C275.737 157.871 275.775 158.277 275.775 158.715V163.083ZM277.116 160.969C277.116 160.503 277.247 160.101 277.508 159.765C277.779 159.42 278.148 159.154 278.614 158.967C279.081 158.781 279.622 158.687 280.238 158.687C280.565 158.687 280.91 158.715 281.274 158.771C281.638 158.818 281.96 158.893 282.24 158.995V158.463C282.24 157.903 282.072 157.465 281.736 157.147C281.4 156.821 280.924 156.657 280.308 156.657C279.907 156.657 279.52 156.732 279.146 156.881C278.782 157.021 278.395 157.227 277.984 157.497L277.536 156.629C278.012 156.303 278.488 156.06 278.964 155.901C279.44 155.733 279.935 155.649 280.448 155.649C281.382 155.649 282.119 155.911 282.66 156.433C283.202 156.947 283.472 157.665 283.472 158.589V161.683C283.472 161.833 283.5 161.945 283.556 162.019C283.622 162.085 283.724 162.122 283.864 162.131V163.083C283.743 163.102 283.636 163.116 283.542 163.125C283.458 163.135 283.388 163.139 283.332 163.139C283.043 163.139 282.824 163.06 282.674 162.901C282.534 162.743 282.455 162.575 282.436 162.397L282.408 161.935C282.091 162.346 281.676 162.663 281.162 162.887C280.649 163.111 280.14 163.223 279.636 163.223C279.151 163.223 278.717 163.125 278.334 162.929C277.952 162.724 277.653 162.453 277.438 162.117C277.224 161.772 277.116 161.389 277.116 160.969ZM281.876 161.487C281.988 161.357 282.077 161.226 282.142 161.095C282.208 160.955 282.24 160.839 282.24 160.745V159.835C281.951 159.723 281.648 159.639 281.33 159.583C281.013 159.518 280.7 159.485 280.392 159.485C279.767 159.485 279.258 159.611 278.866 159.863C278.484 160.106 278.292 160.442 278.292 160.871C278.292 161.105 278.353 161.333 278.474 161.557C278.605 161.772 278.792 161.949 279.034 162.089C279.286 162.229 279.594 162.299 279.958 162.299C280.341 162.299 280.705 162.225 281.05 162.075C281.396 161.917 281.671 161.721 281.876 161.487ZM288.354 163.167C287.86 163.167 287.402 163.069 286.982 162.873C286.572 162.668 286.217 162.393 285.918 162.047C285.62 161.693 285.386 161.291 285.218 160.843C285.06 160.395 284.98 159.929 284.98 159.443C284.98 158.93 285.06 158.445 285.218 157.987C285.386 157.53 285.62 157.129 285.918 156.783C286.226 156.429 286.586 156.153 286.996 155.957C287.407 155.752 287.864 155.649 288.368 155.649C288.975 155.649 289.502 155.799 289.95 156.097C290.408 156.396 290.79 156.774 291.098 157.231V155.775H292.19V162.999C292.19 163.69 292.022 164.273 291.686 164.749C291.36 165.225 290.912 165.585 290.342 165.827C289.782 166.079 289.157 166.205 288.466 166.205C287.645 166.205 286.973 166.061 286.45 165.771C285.928 165.482 285.494 165.09 285.148 164.595L285.862 163.965C286.152 164.395 286.525 164.717 286.982 164.931C287.449 165.146 287.944 165.253 288.466 165.253C288.914 165.253 289.325 165.169 289.698 165.001C290.081 164.843 290.384 164.595 290.608 164.259C290.842 163.923 290.958 163.503 290.958 162.999V161.711C290.688 162.159 290.314 162.514 289.838 162.775C289.372 163.037 288.877 163.167 288.354 163.167ZM288.732 162.159C288.994 162.159 289.246 162.113 289.488 162.019C289.731 161.926 289.955 161.805 290.16 161.655C290.366 161.497 290.538 161.319 290.678 161.123C290.818 160.927 290.912 160.727 290.958 160.521V158.421C290.828 158.085 290.641 157.791 290.398 157.539C290.156 157.278 289.88 157.077 289.572 156.937C289.264 156.788 288.947 156.713 288.62 156.713C288.247 156.713 287.911 156.793 287.612 156.951C287.323 157.11 287.076 157.325 286.87 157.595C286.665 157.857 286.506 158.151 286.394 158.477C286.282 158.804 286.226 159.135 286.226 159.471C286.226 159.835 286.292 160.181 286.422 160.507C286.553 160.825 286.73 161.109 286.954 161.361C287.178 161.613 287.444 161.809 287.752 161.949C288.06 162.089 288.387 162.159 288.732 162.159ZM297.413 163.223C296.862 163.223 296.358 163.125 295.901 162.929C295.453 162.724 295.061 162.449 294.725 162.103C294.398 161.749 294.141 161.343 293.955 160.885C293.777 160.428 293.689 159.943 293.689 159.429C293.689 158.739 293.847 158.109 294.165 157.539C294.482 156.97 294.921 156.513 295.481 156.167C296.05 155.822 296.699 155.649 297.427 155.649C298.164 155.649 298.803 155.827 299.345 156.181C299.895 156.527 300.32 156.984 300.619 157.553C300.927 158.113 301.081 158.72 301.081 159.373C301.081 159.467 301.076 159.56 301.067 159.653C301.067 159.737 301.062 159.803 301.053 159.849H294.991C295.028 160.325 295.159 160.75 295.383 161.123C295.616 161.487 295.915 161.777 296.279 161.991C296.643 162.197 297.035 162.299 297.455 162.299C297.903 162.299 298.323 162.187 298.715 161.963C299.116 161.739 299.391 161.445 299.541 161.081L300.605 161.375C300.446 161.73 300.208 162.047 299.891 162.327C299.583 162.607 299.214 162.827 298.785 162.985C298.365 163.144 297.907 163.223 297.413 163.223ZM294.949 158.995H299.933C299.895 158.519 299.76 158.099 299.527 157.735C299.293 157.371 298.995 157.087 298.631 156.881C298.267 156.676 297.865 156.573 297.427 156.573C296.997 156.573 296.601 156.676 296.237 156.881C295.873 157.087 295.574 157.371 295.341 157.735C295.117 158.099 294.986 158.519 294.949 158.995ZM309.225 163.223C308.674 163.223 308.17 163.125 307.713 162.929C307.265 162.724 306.873 162.444 306.537 162.089C306.21 161.735 305.954 161.329 305.767 160.871C305.59 160.414 305.501 159.929 305.501 159.415C305.501 158.725 305.655 158.095 305.963 157.525C306.271 156.956 306.705 156.503 307.265 156.167C307.825 155.822 308.474 155.649 309.211 155.649C309.93 155.649 310.555 155.813 311.087 156.139C311.628 156.457 312.03 156.886 312.291 157.427L311.087 157.805C310.9 157.46 310.639 157.194 310.303 157.007C309.967 156.811 309.594 156.713 309.183 156.713C308.735 156.713 308.324 156.83 307.951 157.063C307.587 157.297 307.298 157.619 307.083 158.029C306.868 158.431 306.761 158.893 306.761 159.415C306.761 159.929 306.868 160.395 307.083 160.815C307.307 161.226 307.601 161.553 307.965 161.795C308.338 162.038 308.749 162.159 309.197 162.159C309.486 162.159 309.762 162.108 310.023 162.005C310.294 161.903 310.527 161.767 310.723 161.599C310.928 161.422 311.068 161.231 311.143 161.025L312.347 161.389C312.198 161.744 311.969 162.061 311.661 162.341C311.362 162.612 311.003 162.827 310.583 162.985C310.172 163.144 309.72 163.223 309.225 163.223ZM313.169 160.969C313.169 160.503 313.3 160.101 313.561 159.765C313.832 159.42 314.2 159.154 314.667 158.967C315.134 158.781 315.675 158.687 316.291 158.687C316.618 158.687 316.963 158.715 317.327 158.771C317.691 158.818 318.013 158.893 318.293 158.995V158.463C318.293 157.903 318.125 157.465 317.789 157.147C317.453 156.821 316.977 156.657 316.361 156.657C315.96 156.657 315.572 156.732 315.199 156.881C314.835 157.021 314.448 157.227 314.037 157.497L313.589 156.629C314.065 156.303 314.541 156.06 315.017 155.901C315.493 155.733 315.988 155.649 316.501 155.649C317.434 155.649 318.172 155.911 318.713 156.433C319.254 156.947 319.525 157.665 319.525 158.589V161.683C319.525 161.833 319.553 161.945 319.609 162.019C319.674 162.085 319.777 162.122 319.917 162.131V163.083C319.796 163.102 319.688 163.116 319.595 163.125C319.511 163.135 319.441 163.139 319.385 163.139C319.096 163.139 318.876 163.06 318.727 162.901C318.587 162.743 318.508 162.575 318.489 162.397L318.461 161.935C318.144 162.346 317.728 162.663 317.215 162.887C316.702 163.111 316.193 163.223 315.689 163.223C315.204 163.223 314.77 163.125 314.387 162.929C314.004 162.724 313.706 162.453 313.491 162.117C313.276 161.772 313.169 161.389 313.169 160.969ZM317.929 161.487C318.041 161.357 318.13 161.226 318.195 161.095C318.26 160.955 318.293 160.839 318.293 160.745V159.835C318.004 159.723 317.7 159.639 317.383 159.583C317.066 159.518 316.753 159.485 316.445 159.485C315.82 159.485 315.311 159.611 314.919 159.863C314.536 160.106 314.345 160.442 314.345 160.871C314.345 161.105 314.406 161.333 314.527 161.557C314.658 161.772 314.844 161.949 315.087 162.089C315.339 162.229 315.647 162.299 316.011 162.299C316.394 162.299 316.758 162.225 317.103 162.075C317.448 161.917 317.724 161.721 317.929 161.487ZM327.837 163.083H326.605V158.995C326.605 158.221 326.484 157.656 326.241 157.301C326.008 156.937 325.648 156.755 325.163 156.755C324.827 156.755 324.491 156.839 324.155 157.007C323.828 157.175 323.534 157.404 323.273 157.693C323.021 157.973 322.839 158.3 322.727 158.673V163.083H321.495V155.775H322.615V157.343C322.811 156.998 323.063 156.699 323.371 156.447C323.679 156.195 324.029 155.999 324.421 155.859C324.813 155.719 325.224 155.649 325.653 155.649C326.073 155.649 326.423 155.729 326.703 155.887C326.992 156.037 327.216 156.251 327.375 156.531C327.543 156.802 327.66 157.124 327.725 157.497C327.8 157.871 327.837 158.277 327.837 158.715V163.083ZM328.864 156.069L329.144 154.459H328.724V152.863H329.886V154.459L329.466 156.069H328.864ZM334.832 162.719C334.729 162.766 334.589 162.827 334.412 162.901C334.234 162.976 334.029 163.041 333.796 163.097C333.562 163.153 333.315 163.181 333.054 163.181C332.755 163.181 332.48 163.13 332.228 163.027C331.976 162.915 331.775 162.747 331.626 162.523C331.476 162.29 331.402 162.001 331.402 161.655V156.741H330.408V155.775H331.402V153.339H332.634V155.775H334.272V156.741H332.634V161.277C332.652 161.539 332.741 161.735 332.9 161.865C333.058 161.987 333.245 162.047 333.46 162.047C333.702 162.047 333.926 162.005 334.132 161.921C334.337 161.837 334.472 161.777 334.538 161.739L334.832 162.719ZM339.543 152.863H340.775V161.193C340.775 161.595 340.831 161.842 340.943 161.935C341.055 162.029 341.19 162.075 341.349 162.075C341.545 162.075 341.731 162.057 341.909 162.019C342.086 161.973 342.235 161.926 342.357 161.879L342.553 162.887C342.347 162.971 342.105 163.041 341.825 163.097C341.545 163.153 341.297 163.181 341.083 163.181C340.607 163.181 340.229 163.046 339.949 162.775C339.678 162.505 339.543 162.127 339.543 161.641V152.863ZM346.712 163.223C346.162 163.223 345.662 163.125 345.214 162.929C344.766 162.724 344.379 162.449 344.052 162.103C343.726 161.749 343.474 161.343 343.296 160.885C343.119 160.428 343.03 159.947 343.03 159.443C343.03 158.93 343.119 158.445 343.296 157.987C343.474 157.53 343.726 157.129 344.052 156.783C344.379 156.429 344.766 156.153 345.214 155.957C345.672 155.752 346.171 155.649 346.712 155.649C347.263 155.649 347.762 155.752 348.21 155.957C348.658 156.153 349.046 156.429 349.372 156.783C349.708 157.129 349.965 157.53 350.142 157.987C350.32 158.445 350.408 158.93 350.408 159.443C350.408 159.947 350.32 160.428 350.142 160.885C349.965 161.343 349.713 161.749 349.386 162.103C349.06 162.449 348.668 162.724 348.21 162.929C347.762 163.125 347.263 163.223 346.712 163.223ZM344.29 159.457C344.29 159.961 344.398 160.419 344.612 160.829C344.836 161.24 345.13 161.567 345.494 161.809C345.858 162.043 346.264 162.159 346.712 162.159C347.16 162.159 347.566 162.038 347.93 161.795C348.304 161.553 348.598 161.226 348.812 160.815C349.036 160.395 349.148 159.933 349.148 159.429C349.148 158.925 349.036 158.468 348.812 158.057C348.598 157.647 348.304 157.32 347.93 157.077C347.566 156.835 347.16 156.713 346.712 156.713C346.264 156.713 345.858 156.839 345.494 157.091C345.13 157.334 344.836 157.661 344.612 158.071C344.398 158.482 344.29 158.944 344.29 159.457ZM351.327 160.969C351.327 160.503 351.458 160.101 351.719 159.765C351.99 159.42 352.359 159.154 352.825 158.967C353.292 158.781 353.833 158.687 354.449 158.687C354.776 158.687 355.121 158.715 355.485 158.771C355.849 158.818 356.171 158.893 356.451 158.995V158.463C356.451 157.903 356.283 157.465 355.947 157.147C355.611 156.821 355.135 156.657 354.519 156.657C354.118 156.657 353.731 156.732 353.357 156.881C352.993 157.021 352.606 157.227 352.195 157.497L351.747 156.629C352.223 156.303 352.699 156.06 353.175 155.901C353.651 155.733 354.146 155.649 354.659 155.649C355.593 155.649 356.33 155.911 356.871 156.433C357.413 156.947 357.683 157.665 357.683 158.589V161.683C357.683 161.833 357.711 161.945 357.767 162.019C357.833 162.085 357.935 162.122 358.075 162.131V163.083C357.954 163.102 357.847 163.116 357.753 163.125C357.669 163.135 357.599 163.139 357.543 163.139C357.254 163.139 357.035 163.06 356.885 162.901C356.745 162.743 356.666 162.575 356.647 162.397L356.619 161.935C356.302 162.346 355.887 162.663 355.373 162.887C354.86 163.111 354.351 163.223 353.847 163.223C353.362 163.223 352.928 163.125 352.545 162.929C352.163 162.724 351.864 162.453 351.649 162.117C351.435 161.772 351.327 161.389 351.327 160.969ZM356.087 161.487C356.199 161.357 356.288 161.226 356.353 161.095C356.419 160.955 356.451 160.839 356.451 160.745V159.835C356.162 159.723 355.859 159.639 355.541 159.583C355.224 159.518 354.911 159.485 354.603 159.485C353.978 159.485 353.469 159.611 353.077 159.863C352.695 160.106 352.503 160.442 352.503 160.871C352.503 161.105 352.564 161.333 352.685 161.557C352.816 161.772 353.003 161.949 353.245 162.089C353.497 162.229 353.805 162.299 354.169 162.299C354.552 162.299 354.916 162.225 355.261 162.075C355.607 161.917 355.882 161.721 356.087 161.487ZM359.177 159.443C359.177 158.753 359.317 158.123 359.597 157.553C359.887 156.975 360.279 156.513 360.773 156.167C361.277 155.822 361.851 155.649 362.495 155.649C363.083 155.649 363.611 155.803 364.077 156.111C364.544 156.419 364.908 156.793 365.169 157.231V152.863H366.401V161.683C366.401 161.833 366.429 161.945 366.485 162.019C366.551 162.085 366.653 162.122 366.793 162.131V163.083C366.56 163.121 366.378 163.139 366.247 163.139C366.005 163.139 365.79 163.055 365.603 162.887C365.426 162.719 365.337 162.533 365.337 162.327V161.711C365.048 162.178 364.661 162.547 364.175 162.817C363.69 163.088 363.186 163.223 362.663 163.223C362.159 163.223 361.693 163.125 361.263 162.929C360.843 162.724 360.475 162.444 360.157 162.089C359.849 161.735 359.607 161.333 359.429 160.885C359.261 160.428 359.177 159.947 359.177 159.443ZM365.169 160.521V158.421C365.057 158.104 364.875 157.819 364.623 157.567C364.371 157.306 364.087 157.101 363.769 156.951C363.461 156.793 363.153 156.713 362.845 156.713C362.481 156.713 362.15 156.793 361.851 156.951C361.562 157.101 361.31 157.306 361.095 157.567C360.89 157.819 360.731 158.109 360.619 158.435C360.507 158.762 360.451 159.103 360.451 159.457C360.451 159.821 360.512 160.167 360.633 160.493C360.764 160.82 360.941 161.109 361.165 161.361C361.399 161.613 361.665 161.809 361.963 161.949C362.271 162.089 362.603 162.159 362.957 162.159C363.181 162.159 363.41 162.117 363.643 162.033C363.886 161.949 364.115 161.833 364.329 161.683C364.544 161.534 364.726 161.361 364.875 161.165C365.025 160.96 365.123 160.745 365.169 160.521Z" fill="#00917C"/>
<path fill-rule="evenodd" clip-rule="evenodd" d="M319.583 66.0007C320.917 67.335 320.917 69.4983 319.583 70.8326L315.135 75.2806C331.475 76.0047 344.5 89.4812 344.5 106C344.5 122.983 330.733 136.75 313.75 136.75C296.767 136.75 283 122.983 283 106C283 104.113 284.53 102.583 286.417 102.583C288.304 102.583 289.833 104.113 289.833 106C289.833 119.209 300.541 129.917 313.75 129.917C326.959 129.917 337.667 119.209 337.667 106C337.667 93.2811 327.739 82.8811 315.209 82.1271L319.583 86.5007C320.917 87.835 320.917 89.9983 319.583 91.3326C318.248 92.6669 316.085 92.6669 314.751 91.3326L304.501 81.0826C303.86 80.4419 303.5 79.5728 303.5 78.6667C303.5 77.7605 303.86 76.8915 304.501 76.2507L314.751 66.0007C316.085 64.6664 318.248 64.6664 319.583 66.0007Z" fill="#00917C"/>
</svg>
